#!OML:ASF X:\für Bonn\!DataBase\2005_08_10_Bjorn_Final\c3d\bjorn.ASF
:FULLY-SPECIFIED
:DEGREES
98
root 5.53629 19.2577 19.0089 5.98292 -7.52535 360.108
lowerback 3.41729 0.960637 3.29987
upperback 9.05358 1.17858 0.652756
thorax 7.61586 0.778965 -1.11943
lowerneck -11.5736 -1.56536 2.02543
upperneck -1.96421 -2.28476 -4.0886
head 1.28226 -1.25607 -1.75281
rclavicle 1.05356e-014 1.31198e-014
rhumerus -41.8355 -28.6843 -77.7803
rradius 56.4962
rwrist -21.8127
rhand -11.8648 16.0656
rfingers 7.12502
rthumb 14.1873 -13.4299
lclavicle 1.05356e-014 1.31198e-014
lhumerus -36.6397 -4.8893 94.1634
lradius 47.0025
lwrist 40.9655
lhand -29.6231 -12.8541
lfingers 7.12502
lthumb -2.95346 17.1052
rfemur -28.4667 8.38066 12.442
rtibia 45.4324
rfoot -0.27051 21.7577
rtoes -5.66311
lfemur -31.3105 -0.903086 -9.56146
ltibia 43.4925
lfoot 1.85274 -7.56263
ltoes -28.6617
99
root 5.55097 18.9436 19.2001 6.10267 -7.48707 360.067
lowerback 3.29103 1.11311 3.36477
upperback 8.89534 1.38145 0.652871
thorax 7.5274 0.881619 -1.14837
lowerneck -11.3487 -1.64007 2.21171
upperneck -3.18031 -2.44262 -4.20463
head 0.841558 -1.33041 -1.80739
rclavicle -3.37934e-015 3.18055e-015
rhumerus -42.1887 -29.5108 -77.3601
rradius 54.1615
rwrist -23.4451
rhand -11.9058 16.3513
rfingers 7.12502
rthumb 14.1477 -13.147
lclavicle -3.37934e-015 3.18055e-015
lhumerus -36.0013 -3.56453 94.0929
lradius 44.158
lwrist 41.0051
lhand -29.1631 -12.9441
lfingers 7.12502
lthumb -2.50924 17.0209
rfemur -28.8597 8.54742 12.4285
rtibia 47.7172
rfoot -4.37048 22.7275
rtoes -3.43295
lfemur -32.1423 -0.944171 -9.3831
ltibia 46.2144
lfoot -1.519 -8.26578
ltoes -27.8892
100
root 5.56474 18.6452 19.3902 6.33206 -7.44812 360.022
lowerback 3.05125 1.27882 3.44145
upperback 8.70973 1.5983 0.645059
thorax 7.47685 0.992358 -1.18901
lowerneck -11.2428 -1.73005 2.34628
upperneck -4.32561 -2.61461 -4.27683
head 0.448047 -1.41235 -1.8433
rclavicle -1.8487e-014 1.78906e-014
rhumerus -42.3085 -30.5273 -76.8791
rradius 51.5554
rwrist -25.1185
rhand -12.0217 16.6553
rfingers 7.12502
rthumb 14.0361 -12.8508
lclavicle -1.8487e-014 1.78906e-014
lhumerus -35.0141 -2.0712 93.8693
lradius 41.0015
lwrist 41.0392
lhand -28.7829 -13.2229
lfingers 7.12502
lthumb -2.14207 16.7461
rfemur -29.366 8.70389 12.4282
rtibia 50.0629
rfoot -8.55886 23.4651
rtoes -1.11386
lfemur -33.1345 -0.802713 -9.30463
ltibia 49.08
lfoot -5.13188 -8.89014
ltoes -27.2224
101
root 5.5772 18.367 19.5785 6.57576 -7.39967 359.979
lowerback 2.84781 1.45025 3.54466
upperback 8.48326 1.82743 0.590715
thorax 7.36524 1.11151 -1.29366
lowerneck -11.2955 -1.8205 2.56586
upperneck -5.22896 -2.79222 -4.39107
head 0.158554 -1.50216 -1.91539
rclavicle -5.1684e-015 3.18055e-015
rhumerus -42.4092 -31.7023 -76.318
rradius 48.7606
rwrist -26.7985
rhand -11.8618 16.6569
rfingers 7.12502
rthumb 14.1901 -12.8384
lclavicle -5.1684e-015 3.18055e-015
lhumerus -33.7677 -0.18013 93.3482
lradius 37.5453
lwrist 40.8322
lhand -28.6901 -13.911
lfingers 7.12502
lthumb -2.05242 16.0588
rfemur -29.8734 8.88713 12.4516
rtibia 52.3911
rfoot -12.6881 23.9323
rtoes 0.798793
lfemur -34.1148 -0.52161 -9.34996
ltibia 51.9785
lfoot -8.89688 -9.11846
ltoes -27.5613
102
root 5.58957 18.1101 19.7656 6.83045 -7.30818 359.957
lowerback 2.62944 1.5872 3.68527
upperback 8.273 2.0104 0.501426
thorax 7.28241 1.21185 -1.45604
lowerneck -11.5151 -1.90657 2.66925
upperneck -5.98097 -2.94667 -4.3722
head -0.0519404 -1.58007 -1.92801
rclavicle 2.96189e-014 0
rhumerus -42.4155 -32.9756 -75.684
rradius 45.7764
rwrist -28.4749
rhand -11.3403 16.2435
rfingers 7.12502
rthumb 14.6927 -13.2159
lclavicle 2.96189e-014 0
lhumerus -32.4146 2.17633 92.5419
lradius 34.1155
lwrist 40.4962
lhand -28.8732 -14.7877
lfingers 7.12502
lthumb -2.22922 15.1804
rfemur -30.3998 9.0172 12.4764
rtibia 54.654
rfoot -16.5561 24.1256
rtoes 2.34442
lfemur -35.0763 -0.12233 -9.55367
ltibia 54.7996
lfoot -12.6697 -8.7425
ltoes -28.5539
103
root 5.60042 17.8837 19.9541 7.07368 -7.22389 359.906
lowerback 2.38289 1.71842 3.86576
upperback 8.12527 2.18134 0.413904
thorax 7.28722 1.31021 -1.63608
lowerneck -12.035 -1.98759 2.68891
upperneck -6.49422 -3.08057 -4.31416
head -0.135203 -1.65054 -1.92066
rclavicle -9.93923e-016 -1.39149e-014
rhumerus -42.2999 -34.8733 -74.5955
rradius 42.2989
rwrist -29.5346
rhand -10.3096 15.3757
rfingers 7.12502
rthumb 15.6855 -14.0085
lclavicle -9.93923e-016 -1.39149e-014
lhumerus -31.0828 5.28642 91.387
lradius 30.9921
lwrist 39.9176
lhand -29.2549 -15.674
lfingers 7.12502
lthumb -2.59788 14.2899
rfemur -30.8602 9.13219 12.5619
rtibia 56.7809
rfoot -19.9439 24.19
rtoes 3.54293
lfemur -35.9245 0.281775 -9.80273
ltibia 57.432
lfoot -15.8384 -8.05441
ltoes -27.8439
104
root 5.61047 17.6817 20.1394 7.43639 -7.13503 359.89
lowerback 2.05097 1.81987 3.9634
upperback 7.93556 2.3097 0.344477
thorax 7.2894 1.38041 -1.75028
lowerneck -12.4566 -2.04378 2.72079
upperneck -7.06981 -3.18554 -4.35217
head -0.255538 -1.70638 -1.94394
rclavicle 1.70955e-014 7.95139e-016
rhumerus -42.3415 -37.5216 -72.7371
rradius 38.307
rwrist -29.7206
rhand -8.83596 14.2135
rfingers 7.12502
rthumb 17.1043 -15.0536
lclavicle 1.70955e-014 7.95139e-016
lhumerus -30.1324 9.13205 89.917
lradius 28.6231
lwrist 39.5781
lhand -29.4546 -14.9855
lfingers 7.12502
lthumb -2.79078 14.976
rfemur -31.3886 9.26058 12.5976
rtibia 58.7533
rfoot -22.8012 24.1049
rtoes 4.71303
lfemur -36.8106 0.576494 -10.1358
ltibia 59.814
lfoot -18.5202 -7.34282
ltoes -25.9924
105
root 5.61976 17.5021 20.324 8.02801 -7.07735 359.877
lowerback 1.51094 1.94846 4.03318
upperback 7.65407 2.46686 0.284621
thorax 7.31342 1.46129 -1.83118
lowerneck -12.8243 -2.11228 2.64061
upperneck -7.60622 -3.28911 -4.33501
head -0.370578 -1.75772 -1.92879
rclavicle 1.80894e-014 -5.56597e-015
rhumerus -43.0462 -40.5084 -70.1909
rradius 34.4882
rwrist -29.3648
rhand -8.12207 13.7595
rfingers 7.12502
rthumb 17.7914 -15.4466
lclavicle 1.80894e-014 -5.56597e-015
lhumerus -29.3959 13.7673 88.1075
lradius 27.0411
lwrist 39.9978
lhand -29.9099 -12.7143
lfingers 7.12502
lthumb -3.23046 17.241
rfemur -32.0965 9.45468 12.5977
rtibia 60.5066
rfoot -25.1864 23.8434
rtoes 5.33824
lfemur -37.7983 0.826246 -10.4962
ltibia 61.9145
lfoot -21.0086 -6.3812
ltoes -25.5067
106
root 5.62838 17.3476 20.5083 8.66288 -6.98844 359.913
lowerback 0.963543 2.05835 4.07264
upperback 7.30388 2.60377 0.173241
thorax 7.26813 1.52991 -1.95015
lowerneck -12.952 -2.15526 2.70266
upperneck -8.21564 -3.37678 -4.37829
head -0.550845 -1.80171 -1.95359
rclavicle -1.37161e-014 1.98785e-015
rhumerus -44.3954 -43.2495 -67.4185
rradius 31.3732
rwrist -29.1318
rhand -8.51021 13.5582
rfingers 7.12502
rthumb 17.4179 -15.6814
lclavicle -1.37161e-014 1.98785e-015
lhumerus -29.0956 18.4884 85.999
lradius 26.2223
lwrist 41.5337
lhand -30.701 -10.2107
lfingers 7.12502
lthumb -3.9944 19.7316
rfemur -32.7152 9.6572 12.5441
rtibia 61.9824
rfoot -27.2747 23.3824
rtoes 5.20679
lfemur -38.6722 0.952994 -10.9218
ltibia 63.6819
lfoot -23.1388 -5.32065
ltoes -25.4119
107
root 5.63524 17.2284 20.6962 8.98187 -6.80552 359.948
lowerback 0.73636 2.11693 4.0968
upperback 7.01688 2.68184 0.116652
thorax 7.09901 1.56544 -2.0167
lowerneck -13.1326 -2.20088 2.57862
upperneck -8.60232 -3.43315 -4.29835
head -0.645304 -1.82562 -1.90693
rclavicle -7.7526e-015 1.98785e-015
rhumerus -46.1428 -45.691 -64.3368
rradius 28.9867
rwrist -29.3407
rhand -9.14519 12.4899
rfingers 7.12502
rthumb 16.8067 -16.8027
lclavicle -7.7526e-015 1.98785e-015
lhumerus -29.1986 21.6806 84.29
lradius 26.3363
lwrist 45.3918
lhand -33.2835 -8.8756
lfingers 7.12502
lthumb -6.48791 21.005
rfemur -32.7284 9.86634 12.5923
rtibia 63.076
rfoot -29.0988 22.7218
rtoes 4.13474
lfemur -38.976 0.84472 -11.2977
ltibia 65.0726
lfoot -24.8301 -4.013
ltoes -26.7162
108
root 5.64056 17.1494 20.8888 8.96868 -6.57135 359.986
lowerback 0.81979 2.13509 4.11314
upperback 6.77516 2.7171 0.0902914
thorax 6.7948 1.57691 -2.061
lowerneck -13.368 -2.23546 2.45065
upperneck -8.63526 -3.46412 -4.2713
head -0.616921 -1.83907 -1.8803
rclavicle 4.79071e-014 -5.1684e-015
rhumerus -48.184 -47.804 -61.0845
rradius 27.2413
rwrist -30.1606
rhand -10.1382 10.9916
rfingers 7.12502
rthumb 15.8506 -18.3796
lclavicle 4.79071e-014 -5.1684e-015
lhumerus -29.6975 24.2261 82.6697
lradius 27.1811
lwrist 50.1402
lhand -36.8301 -8.93187
lfingers 7.12502
lthumb -9.9107 20.8148
rfemur -32.0975 10.1387 12.732
rtibia 63.7552
rfoot -30.7487 21.7857
rtoes 2.039
lfemur -38.6646 0.5003 -11.6069
ltibia 66.0417
lfoot -26.2283 -2.05181
ltoes -30.5515
